<svg width="85" height="85" viewBox="0 0 85 85" fill="none" xmlns="http://www.w3.org/2000/svg">
<mask id="path-1-outside-1_132_530" maskUnits="userSpaceOnUse" x="0" y="0" width="85" height="85" fill="black">
<rect fill="white" width="85" height="85"/>
<path fill-rule="evenodd" clip-rule="evenodd" d="M61.3294 49.9401C60.3312 49.4434 55.4378 47.0501 54.5268 46.7167C53.6157 46.3867 52.9526 46.2234 52.286 47.2167C51.6229 48.2034 49.7171 50.4367 49.1376 51.0967C48.5548 51.7601 47.9754 51.8401 46.9806 51.3467C45.9859 50.8467 42.7772 49.8034 38.9756 46.4301C36.0181 43.8034 34.0186 40.5601 33.4391 39.5667C32.8597 38.5767 33.3755 38.0401 33.8745 37.5467C34.3233 37.1034 34.8693 36.3901 35.3684 35.8134C35.8674 35.2334 36.0315 34.8201 36.3631 34.1567C36.6981 33.4968 36.5306 32.9201 36.2794 32.4234C36.0315 31.9268 34.042 27.0501 33.2114 25.0668C32.4042 23.1368 31.5836 23.4001 30.974 23.3668C30.3912 23.3401 29.728 23.3334 29.0648 23.3334C28.4017 23.3334 27.3232 23.5801 26.4121 24.5734C25.4977 25.5634 22.9288 27.9601 22.9288 32.8368C22.9288 37.7101 26.4925 42.4201 26.9916 43.0834C27.4906 43.7434 34.0085 53.75 43.993 58.04C46.371 59.06 48.2233 59.67 49.6668 60.1234C52.0516 60.88 54.222 60.7734 55.9369 60.5167C57.846 60.2334 61.8251 58.12 62.6557 55.8067C63.483 53.4934 63.483 51.5101 63.2351 51.0967C62.9873 50.6834 62.3241 50.4367 61.326 49.9401H61.3294ZM43.169 74.6167H43.1557C37.2253 74.6178 31.4039 73.0312 26.3016 70.0234L25.0958 69.31L12.5625 72.5833L15.9085 60.4234L15.1214 59.1767C11.806 53.9245 10.0514 47.846 10.0605 41.6434C10.0672 23.4768 24.9183 8.69679 43.1824 8.69679C52.0248 8.69679 60.3379 12.1301 66.5879 18.3568C69.6706 21.412 72.1139 25.0453 73.7766 29.0464C75.4392 33.0475 76.2881 37.337 76.2743 41.6667C76.2676 59.8334 61.4164 74.6167 43.169 74.6167ZM71.344 13.6268C67.6536 9.92987 63.2627 6.99858 58.4257 5.0028C53.5888 3.00701 48.4019 1.98641 43.1657 2.00014C21.2139 2.00014 3.34164 19.7834 3.33494 41.6401C3.33159 48.6267 5.1637 55.4467 8.65039 61.4567L3 82L24.1145 76.4867C29.9553 79.6537 36.5008 81.3132 43.1523 81.3133H43.169C65.1208 81.3133 82.9931 63.53 82.9998 41.6701C83.016 36.461 81.9942 31.3004 79.9935 26.4869C77.9928 21.6733 75.053 17.3023 71.344 13.6268Z"/>
</mask>
<path fill-rule="evenodd" clip-rule="evenodd" d="M61.3294 49.9401C60.3312 49.4434 55.4378 47.0501 54.5268 46.7167C53.6157 46.3867 52.9526 46.2234 52.286 47.2167C51.6229 48.2034 49.7171 50.4367 49.1376 51.0967C48.5548 51.7601 47.9754 51.8401 46.9806 51.3467C45.9859 50.8467 42.7772 49.8034 38.9756 46.4301C36.0181 43.8034 34.0186 40.5601 33.4391 39.5667C32.8597 38.5767 33.3755 38.0401 33.8745 37.5467C34.3233 37.1034 34.8693 36.3901 35.3684 35.8134C35.8674 35.2334 36.0315 34.8201 36.3631 34.1567C36.6981 33.4968 36.5306 32.9201 36.2794 32.4234C36.0315 31.9268 34.042 27.0501 33.2114 25.0668C32.4042 23.1368 31.5836 23.4001 30.974 23.3668C30.3912 23.3401 29.728 23.3334 29.0648 23.3334C28.4017 23.3334 27.3232 23.5801 26.4121 24.5734C25.4977 25.5634 22.9288 27.9601 22.9288 32.8368C22.9288 37.7101 26.4925 42.4201 26.9916 43.0834C27.4906 43.7434 34.0085 53.75 43.993 58.04C46.371 59.06 48.2233 59.67 49.6668 60.1234C52.0516 60.88 54.222 60.7734 55.9369 60.5167C57.846 60.2334 61.8251 58.12 62.6557 55.8067C63.483 53.4934 63.483 51.5101 63.2351 51.0967C62.9873 50.6834 62.3241 50.4367 61.326 49.9401H61.3294ZM43.169 74.6167H43.1557C37.2253 74.6178 31.4039 73.0312 26.3016 70.0234L25.0958 69.31L12.5625 72.5833L15.9085 60.4234L15.1214 59.1767C11.806 53.9245 10.0514 47.846 10.0605 41.6434C10.0672 23.4768 24.9183 8.69679 43.1824 8.69679C52.0248 8.69679 60.3379 12.1301 66.5879 18.3568C69.6706 21.412 72.1139 25.0453 73.7766 29.0464C75.4392 33.0475 76.2881 37.337 76.2743 41.6667C76.2676 59.8334 61.4164 74.6167 43.169 74.6167ZM71.344 13.6268C67.6536 9.92987 63.2627 6.99858 58.4257 5.0028C53.5888 3.00701 48.4019 1.98641 43.1657 2.00014C21.2139 2.00014 3.34164 19.7834 3.33494 41.6401C3.33159 48.6267 5.1637 55.4467 8.65039 61.4567L3 82L24.1145 76.4867C29.9553 79.6537 36.5008 81.3132 43.1523 81.3133H43.169C65.1208 81.3133 82.9931 63.53 82.9998 41.6701C83.016 36.461 81.9942 31.3004 79.9935 26.4869C77.9928 21.6733 75.053 17.3023 71.344 13.6268Z" fill="#F6EEEB"/>
<path d="M61.3294 49.9401V51.9401L62.2204 48.1495L61.3294 49.9401ZM54.5268 46.7167L55.214 44.8385L55.2079 44.8363L54.5268 46.7167ZM52.286 47.2167L53.9459 48.3324L53.9468 48.3311L52.286 47.2167ZM49.1376 51.0967L50.6401 52.4168L50.6406 52.4162L49.1376 51.0967ZM46.9806 51.3467L46.0824 53.1337L46.092 53.1385L46.9806 51.3467ZM38.9756 46.4301L37.6475 47.9254L37.6482 47.926L38.9756 46.4301ZM33.4391 39.5667L35.1667 38.559L35.1652 38.5565L33.4391 39.5667ZM33.8745 37.5467L32.469 36.1239L32.4685 36.1244L33.8745 37.5467ZM35.3684 35.8134L36.8807 37.1222L36.8844 37.1179L35.3684 35.8134ZM36.3631 34.1567L34.5796 33.2516L34.5742 33.2625L36.3631 34.1567ZM36.2794 32.4234L34.4898 33.3165L34.4947 33.3261L36.2794 32.4234ZM33.2114 25.0668L31.3662 25.8385L31.3666 25.8394L33.2114 25.0668ZM30.974 23.3668L31.0832 21.3698L31.0743 21.3693L31.0654 21.3689L30.974 23.3668ZM26.4121 24.5734L27.8813 25.9304L27.8861 25.9253L26.4121 24.5734ZM26.9916 43.0834L25.3934 44.2858L25.3963 44.2897L26.9916 43.0834ZM43.993 58.04L43.2035 59.8776L43.2046 59.8781L43.993 58.04ZM49.6668 60.1234L50.2717 58.217L50.266 58.2152L49.6668 60.1234ZM55.9369 60.5167L55.6433 58.5384L55.6408 58.5387L55.9369 60.5167ZM62.6557 55.8067L64.538 56.4826L64.5389 56.4802L62.6557 55.8067ZM61.326 49.9401V47.9401L60.435 51.7306L61.326 49.9401ZM43.1557 74.6167V72.6167H43.1553L43.1557 74.6167ZM26.3016 70.0234L25.2833 71.7447L25.2859 71.7463L26.3016 70.0234ZM25.0958 69.31L26.1142 67.5887L25.3968 67.1643L24.5904 67.3749L25.0958 69.31ZM12.5625 72.5833L10.6341 72.0527L9.71468 75.3942L13.0679 74.5184L12.5625 72.5833ZM15.9085 60.4234L17.8368 60.954L18.0711 60.1024L17.5996 59.3556L15.9085 60.4234ZM15.1214 59.1767L13.4302 60.2443L13.4302 60.2444L15.1214 59.1767ZM10.0605 41.6434L12.0605 41.6463L12.0605 41.6441L10.0605 41.6434ZM66.5879 18.3568L65.1763 19.7736L65.18 19.7773L66.5879 18.3568ZM76.2743 41.6667L74.2743 41.6603L74.2743 41.666L76.2743 41.6667ZM43.1657 2.00014V4.00014L43.1709 4.00013L43.1657 2.00014ZM3.33494 41.6401L5.33494 41.641V41.6407L3.33494 41.6401ZM8.65039 61.4567L10.5788 61.9871L10.8012 61.1785L10.3803 60.4531L8.65039 61.4567ZM3 82L1.07161 81.4696L0.152696 84.8105L3.50529 83.9351L3 82ZM24.1145 76.4867L25.0678 74.7285L24.3734 74.352L23.6092 74.5516L24.1145 76.4867ZM43.1523 81.3133L43.1523 83.3133H43.1523V81.3133ZM82.9998 41.6701L80.9998 41.6639V41.6695L82.9998 41.6701ZM62.2204 48.1495C61.7116 47.8963 60.2302 47.1697 58.7612 46.4643C57.3534 45.7882 55.7859 45.0478 55.214 44.8385L53.8396 48.595C54.1787 48.719 55.5135 49.3419 57.0296 50.07C58.4846 50.7687 59.949 51.4871 60.4384 51.7306L62.2204 48.1495ZM55.2079 44.8363C54.8105 44.6923 53.9846 44.3794 53.0844 44.4838C51.9673 44.6133 51.1735 45.2853 50.6253 46.1023L53.9468 48.3311C54.018 48.2251 54.0221 48.2514 53.9369 48.311C53.8922 48.3424 53.8315 48.3768 53.7565 48.4052C53.6815 48.4336 53.6088 48.4498 53.545 48.4572C53.4242 48.4712 53.3705 48.4496 53.4374 48.465C53.4683 48.4721 53.5157 48.4849 53.5869 48.5076C53.6584 48.5305 53.7413 48.5594 53.8456 48.5972L55.2079 44.8363ZM50.6261 46.101C50.0486 46.9602 48.2351 49.0933 47.6347 49.7772L50.6406 52.4162C51.199 51.7802 53.1971 49.4465 53.9459 48.3324L50.6261 46.101ZM47.6351 49.7767C47.5807 49.8386 47.5844 49.8197 47.6493 49.7799C47.6837 49.7588 47.7315 49.7342 47.7913 49.713C47.8517 49.6915 47.9139 49.6771 47.9742 49.6699C48.0965 49.6551 48.1644 49.6748 48.1466 49.6703C48.1221 49.6641 48.0363 49.6378 47.8692 49.555L46.092 53.1385C46.719 53.4494 47.5371 53.7515 48.4531 53.6411C49.4521 53.5206 50.1567 52.967 50.6401 52.4168L47.6351 49.7767ZM47.8788 49.5597C46.6764 48.9554 43.8478 48.0796 40.3031 44.9341L37.6482 47.926C41.7065 51.5272 45.2954 52.7381 46.0824 53.1337L47.8788 49.5597ZM40.3037 44.9347C37.5832 42.5185 35.7105 39.4912 35.1667 38.559L31.7116 40.5745C32.3266 41.6289 34.453 45.0883 37.6475 47.9254L40.3037 44.9347ZM35.1652 38.5565C35.1242 38.4864 35.1601 38.5225 35.1762 38.6481C35.1843 38.711 35.1857 38.7841 35.1762 38.8628C35.1667 38.9412 35.1482 39.0106 35.1269 39.0679C35.0863 39.177 35.0432 39.2215 35.0686 39.1902C35.0996 39.1519 35.151 39.0972 35.2806 38.9691L32.4685 36.1244C32.2701 36.3206 31.6755 36.8733 31.3779 37.6731C31.0093 38.6639 31.1839 39.673 31.713 40.577L35.1652 38.5565ZM35.28 38.9696C35.7948 38.4612 36.5217 37.537 36.8807 37.1222L33.856 34.5046C33.2169 35.2432 32.8519 35.7457 32.469 36.1239L35.28 38.9696ZM36.8844 37.1179C37.5837 36.3051 37.8672 35.6208 38.1521 35.051L34.5742 33.2625C34.1958 34.0193 34.1511 34.1617 33.8523 34.5089L36.8844 37.1179ZM38.1466 35.0618C38.9011 33.5751 38.4402 32.2644 38.0641 31.5208L34.4947 33.3261C34.5285 33.393 34.545 33.4343 34.5527 33.4568C34.5599 33.4779 34.5557 33.4721 34.5528 33.4451C34.5495 33.4153 34.5493 33.3735 34.5575 33.3274C34.5614 33.3057 34.5663 33.2874 34.5711 33.2732C34.5735 33.2663 34.5756 33.261 34.5771 33.2572C34.5787 33.2535 34.5796 33.2516 34.5796 33.2517L38.1466 35.0618ZM38.0689 31.5304C38.0735 31.5395 38.0656 31.5238 38.039 31.4643C38.0155 31.4117 37.9847 31.3416 37.9467 31.2535C37.8708 31.0776 37.7724 30.8455 37.6562 30.5689C37.4242 30.0164 37.1281 29.3027 36.8122 28.5385C36.1831 27.0169 35.4738 25.2914 35.0561 24.2942L31.3666 25.8394C31.7796 26.8255 32.4803 28.53 33.1156 30.0667C33.7226 31.5349 34.3242 32.9846 34.4898 33.3165L38.0689 31.5304ZM35.0565 24.2951C34.5638 23.1172 33.893 22.1764 32.869 21.6953C32.3724 21.462 31.9148 21.3976 31.5829 21.3784C31.4271 21.3694 31.2857 21.37 31.2062 21.3702C31.1597 21.3704 31.1339 21.3705 31.1095 21.3702C31.0872 21.37 31.0807 21.3696 31.0832 21.3698L30.8648 25.3638C31.0106 25.3718 31.1535 25.3704 31.2179 25.3702C31.3031 25.37 31.3321 25.3706 31.3515 25.3717C31.3702 25.3728 31.2825 25.3694 31.1681 25.3157C31.05 25.2602 31.0156 25.2044 31.0519 25.2493C31.099 25.3076 31.2136 25.4736 31.3662 25.8385L35.0565 24.2951ZM31.0654 21.3689C30.4358 21.34 29.7359 21.3334 29.0648 21.3334V25.3334C29.7202 25.3334 30.3466 25.3402 30.8826 25.3647L31.0654 21.3689ZM29.0648 21.3334C27.9476 21.3334 26.2944 21.7428 24.9382 23.2216L27.8861 25.9253C28.3519 25.4174 28.8557 25.3334 29.0648 25.3334V21.3334ZM24.9429 23.2164C24.0162 24.2198 20.9288 27.1228 20.9288 32.8368H24.9288C24.9288 28.7974 26.9793 26.9071 27.8813 25.9304L24.9429 23.2164ZM20.9288 32.8368C20.9288 35.7254 21.9728 38.4499 22.9913 40.4473C24.0243 42.4732 25.1229 43.9263 25.3934 44.2858L28.5898 41.881C28.3611 41.5771 27.4284 40.3436 26.5548 38.6303C25.6666 36.8886 24.9288 34.8214 24.9288 32.8368H20.9288ZM25.3963 44.2897C25.3922 44.2843 25.3987 44.2928 25.425 44.3299C25.4486 44.3631 25.4785 44.4057 25.5178 44.4617C25.5948 44.5714 25.6989 44.7201 25.826 44.8988C26.0811 45.2573 26.429 45.7376 26.8641 46.3083C27.7335 47.4483 28.9519 48.9505 30.4796 50.572C33.5168 53.7956 37.8615 57.5823 43.2035 59.8776L44.7825 56.2025C35.3887 52.1663 29.1973 42.6845 28.5868 41.8771L25.3963 44.2897ZM43.2046 59.8781C45.6687 60.935 47.5911 61.5678 49.0676 62.0315L50.266 58.2152C48.8554 57.7722 47.0734 57.1851 44.7814 56.202L43.2046 59.8781ZM49.062 62.0297C51.8444 62.9126 54.351 62.7763 56.2329 62.4947L55.6408 58.5387C54.0929 58.7704 52.2587 58.8475 50.2717 58.217L49.062 62.0297ZM56.2305 62.495C57.559 62.2979 59.2998 61.5508 60.7762 60.6092C62.2035 59.6988 63.8895 58.2889 64.538 56.4826L60.7734 55.1308C60.5913 55.6378 59.8724 56.4413 58.6252 57.2367C57.4271 58.0009 56.2238 58.4522 55.6433 58.5384L56.2305 62.495ZM64.5389 56.4802C65.0112 55.1594 65.2542 53.9167 65.3412 52.9117C65.3845 52.4113 65.3918 51.9395 65.3594 51.5257C65.3356 51.2218 65.2721 50.6046 64.9504 50.0682L61.5199 52.1253C61.4489 52.0069 61.4112 51.9103 61.3937 51.8612C61.3749 51.8082 61.3665 51.7726 61.3641 51.7616C61.3597 51.7422 61.3658 51.7637 61.3716 51.8378C61.3831 51.9844 61.3852 52.2304 61.3561 52.5667C61.2982 53.2351 61.1275 54.1407 60.7725 55.1332L64.5389 56.4802ZM64.9504 50.0682C64.5309 49.3686 63.8797 48.9903 63.5198 48.7939C63.1643 48.6 62.5994 48.3398 62.217 48.1495L60.435 51.7306C60.6997 51.8624 60.9482 51.9804 61.1426 52.074C61.3493 52.1736 61.4924 52.2445 61.6041 52.3054C61.7175 52.3672 61.7452 52.3906 61.7325 52.3806C61.7152 52.3669 61.6163 52.286 61.5199 52.1253L64.9504 50.0682ZM61.326 51.9401H61.3294V47.9401H61.326V51.9401ZM43.169 72.6167H43.1557V76.6167H43.169V72.6167ZM43.1553 72.6167C37.5819 72.6177 32.1114 71.1266 27.3173 68.3004L25.2859 71.7463C30.6965 74.9358 36.8688 76.6178 43.156 76.6167L43.1553 72.6167ZM27.3199 68.302L26.1142 67.5887L24.0775 71.0314L25.2833 71.7447L27.3199 68.302ZM24.5904 67.3749L12.0571 70.6483L13.0679 74.5184L25.6012 71.2451L24.5904 67.3749ZM14.4908 73.114L17.8368 60.954L13.9802 59.8928L10.6341 72.0527L14.4908 73.114ZM17.5996 59.3556L16.8125 58.109L13.4302 60.2444L14.2173 61.4911L17.5996 59.3556ZM16.8126 58.1091C13.6991 53.1769 12.052 47.4695 12.0605 41.6463L8.06048 41.6405C8.05087 48.2225 9.91279 54.6722 13.4302 60.2443L16.8126 58.1091ZM12.0605 41.6441C12.0668 24.5908 26.0136 10.6968 43.1824 10.6968V6.69679C23.823 6.69679 8.06759 22.3627 8.06048 41.6427L12.0605 41.6441ZM43.1824 10.6968C51.4965 10.6968 59.3018 13.921 65.1763 19.7736L67.9994 16.9399C61.3741 10.3392 52.5531 6.69679 43.1824 6.69679V10.6968ZM65.18 19.7773C68.0749 22.6464 70.3688 26.0578 71.9297 29.8139L75.6234 28.2789C73.859 24.0328 71.2662 20.1777 67.9958 16.9363L65.18 19.7773ZM71.9297 29.8139C73.4905 33.5699 74.2873 37.5964 74.2743 41.6603L78.2743 41.6731C78.289 37.0777 77.3879 32.5251 75.6234 28.2789L71.9297 29.8139ZM74.2743 41.666C74.268 58.7203 60.3203 72.6167 43.169 72.6167V76.6167C62.5126 76.6167 78.2672 60.9465 78.2743 41.6675L74.2743 41.666ZM72.7595 12.2138C68.8821 8.32962 64.2693 5.25036 59.1886 3.15399L57.6629 6.8516C62.2561 8.74681 66.4251 11.5301 69.9285 15.0397L72.7595 12.2138ZM59.1886 3.15399C54.1079 1.05764 48.6599 -0.0142708 43.1605 0.000143409L43.1709 4.00013C48.1438 3.9871 53.0697 4.95639 57.6629 6.8516L59.1886 3.15399ZM43.1657 0.000136614C20.1182 0.000136614 1.34198 18.6699 1.33494 41.6395L5.33494 41.6407C5.3413 20.897 22.3096 4.00014 43.1657 4.00014V0.000136614ZM1.33494 41.6391C1.33142 48.9773 3.25607 56.1441 6.92045 62.4603L10.3803 60.4531C7.07132 54.7493 5.33176 48.2761 5.33494 41.641L1.33494 41.6391ZM6.72201 60.9263L1.07161 81.4696L4.92839 82.5304L10.5788 61.9871L6.72201 60.9263ZM3.50529 83.9351L24.6197 78.4218L23.6092 74.5516L2.49471 80.0649L3.50529 83.9351ZM23.1611 78.2449C29.295 81.5708 36.1682 83.3132 43.1523 83.3133L43.1523 79.3133C36.8333 79.3132 30.6157 77.7367 25.0678 74.7285L23.1611 78.2449ZM43.1523 83.3133H43.169V79.3133H43.1523V83.3133ZM43.169 83.3133C66.2167 83.3133 84.9928 64.6434 84.9998 41.6707L80.9998 41.6695C80.9934 62.4166 64.025 79.3133 43.169 79.3133V83.3133ZM84.9998 41.6763C85.0168 36.2015 83.9429 30.7778 81.8403 25.7193L78.1467 27.2545C80.0455 31.823 81.0152 36.7205 80.9998 41.6639L84.9998 41.6763ZM81.8403 25.7193C79.7378 20.6607 76.6486 16.0679 72.7518 12.2062L69.9362 15.0474C73.4574 18.5368 76.2478 22.686 78.1467 27.2545L81.8403 25.7193Z" fill="#4ABDAC" mask="url(#path-1-outside-1_132_530)"/>
</svg>
